<mxfile host="app.diagrams.net" modified="2023-10-22T21:13:49.950Z" agent="Mozilla/5.0 (Macintosh; Intel Mac OS X 10_15_7) AppleWebKit/605.1.15 (KHTML, like Gecko) Version/17.0 Safari/605.1.15" etag="jMNLk2koIC95NBGc81vQ" version="22.0.6" type="google">
  <diagram id="9zK-ifmNZDciMGdTK2VT" name="Page-1">
    <mxGraphModel grid="1" page="1" gridSize="10" guides="1" tooltips="1" connect="1" arrows="1" fold="1" pageScale="1" pageWidth="850" pageHeight="1100" math="0" shadow="0">
      <root>
        <mxCell id="0" />
        <mxCell id="1" parent="0" />
        <mxCell id="5McD0_1M50JmVXnACwnA-14" style="edgeStyle=orthogonalEdgeStyle;rounded=0;orthogonalLoop=1;jettySize=auto;html=1;entryX=0;entryY=0.5;entryDx=0;entryDy=0;" edge="1" parent="1" source="5McD0_1M50JmVXnACwnA-2" target="5McD0_1M50JmVXnACwnA-18">
          <mxGeometry relative="1" as="geometry">
            <mxPoint x="720" y="260" as="targetPoint" />
          </mxGeometry>
        </mxCell>
        <mxCell id="5McD0_1M50JmVXnACwnA-17" value="No" style="edgeLabel;html=1;align=center;verticalAlign=middle;resizable=0;points=[];" connectable="0" vertex="1" parent="5McD0_1M50JmVXnACwnA-14">
          <mxGeometry x="0.1333" y="-2" relative="1" as="geometry">
            <mxPoint as="offset" />
          </mxGeometry>
        </mxCell>
        <mxCell id="5McD0_1M50JmVXnACwnA-16" style="edgeStyle=orthogonalEdgeStyle;rounded=0;orthogonalLoop=1;jettySize=auto;html=1;entryX=0.5;entryY=0;entryDx=0;entryDy=0;" edge="1" parent="1" source="5McD0_1M50JmVXnACwnA-2" target="5McD0_1M50JmVXnACwnA-15">
          <mxGeometry relative="1" as="geometry" />
        </mxCell>
        <mxCell id="5McD0_1M50JmVXnACwnA-20" value="Yes" style="edgeLabel;html=1;align=center;verticalAlign=middle;resizable=0;points=[];" connectable="0" vertex="1" parent="5McD0_1M50JmVXnACwnA-16">
          <mxGeometry x="-0.4333" y="4" relative="1" as="geometry">
            <mxPoint as="offset" />
          </mxGeometry>
        </mxCell>
        <mxCell id="OUREO986Ew9QmudfCvVQ-8" style="edgeStyle=orthogonalEdgeStyle;rounded=0;orthogonalLoop=1;jettySize=auto;html=1;entryX=1;entryY=0.5;entryDx=0;entryDy=0;" edge="1" parent="1" source="5McD0_1M50JmVXnACwnA-2" target="OUREO986Ew9QmudfCvVQ-7">
          <mxGeometry relative="1" as="geometry" />
        </mxCell>
        <mxCell id="5McD0_1M50JmVXnACwnA-2" value="Is policy expired&amp;nbsp;&lt;br&gt;or peril occurred" style="strokeWidth=2;html=1;shape=mxgraph.flowchart.decision;whiteSpace=wrap;" vertex="1" parent="1">
          <mxGeometry x="530" y="210" width="140" height="140" as="geometry" />
        </mxCell>
        <mxCell id="5McD0_1M50JmVXnACwnA-13" style="edgeStyle=orthogonalEdgeStyle;rounded=0;orthogonalLoop=1;jettySize=auto;html=1;" edge="1" parent="1" source="5McD0_1M50JmVXnACwnA-3" target="5McD0_1M50JmVXnACwnA-2">
          <mxGeometry relative="1" as="geometry" />
        </mxCell>
        <mxCell id="5McD0_1M50JmVXnACwnA-3" value="Matched&lt;br&gt;Policy&lt;br&gt;Queue" style="rounded=1;whiteSpace=wrap;html=1;absoluteArcSize=1;arcSize=14;strokeWidth=2;" vertex="1" parent="1">
          <mxGeometry x="550" y="60" width="100" height="100" as="geometry" />
        </mxCell>
        <mxCell id="5McD0_1M50JmVXnACwnA-12" style="edgeStyle=orthogonalEdgeStyle;rounded=0;orthogonalLoop=1;jettySize=auto;html=1;entryX=0;entryY=0.5;entryDx=0;entryDy=0;" edge="1" parent="1" source="5McD0_1M50JmVXnACwnA-7" target="5McD0_1M50JmVXnACwnA-3">
          <mxGeometry relative="1" as="geometry" />
        </mxCell>
        <mxCell id="5McD0_1M50JmVXnACwnA-7" value="Matched&lt;br style=&quot;border-color: var(--border-color);&quot;&gt;Policy" style="shape=parallelogram;html=1;strokeWidth=2;perimeter=parallelogramPerimeter;whiteSpace=wrap;rounded=1;arcSize=12;size=0.23;" vertex="1" parent="1">
          <mxGeometry x="290" y="80" width="130" height="60" as="geometry" />
        </mxCell>
        <mxCell id="5McD0_1M50JmVXnACwnA-11" style="edgeStyle=orthogonalEdgeStyle;rounded=0;orthogonalLoop=1;jettySize=auto;html=1;" edge="1" parent="1" source="5McD0_1M50JmVXnACwnA-10" target="5McD0_1M50JmVXnACwnA-7">
          <mxGeometry relative="1" as="geometry" />
        </mxCell>
        <mxCell id="5McD0_1M50JmVXnACwnA-10" value="Start" style="strokeWidth=2;html=1;shape=mxgraph.flowchart.start_1;whiteSpace=wrap;" vertex="1" parent="1">
          <mxGeometry x="110" y="80" width="100" height="60" as="geometry" />
        </mxCell>
        <mxCell id="5McD0_1M50JmVXnACwnA-23" style="edgeStyle=orthogonalEdgeStyle;rounded=0;orthogonalLoop=1;jettySize=auto;html=1;entryX=0.5;entryY=0;entryDx=0;entryDy=0;entryPerimeter=0;" edge="1" parent="1" source="5McD0_1M50JmVXnACwnA-15" target="OUREO986Ew9QmudfCvVQ-5">
          <mxGeometry relative="1" as="geometry" />
        </mxCell>
        <mxCell id="5McD0_1M50JmVXnACwnA-15" value="Payout insured with escrow amount of premium and coverage amount if peril occurred during coverage. Payout insurer with escrow amount of premium and coverage amount if peril didn&#39;t occur and coverage period is expired. Move matched policy from matched orders to completed orders" style="rounded=1;whiteSpace=wrap;html=1;absoluteArcSize=1;arcSize=14;strokeWidth=2;" vertex="1" parent="1">
          <mxGeometry x="530" y="390" width="140" height="280" as="geometry" />
        </mxCell>
        <mxCell id="5McD0_1M50JmVXnACwnA-21" style="edgeStyle=orthogonalEdgeStyle;rounded=0;orthogonalLoop=1;jettySize=auto;html=1;entryX=1;entryY=0.558;entryDx=0;entryDy=0;entryPerimeter=0;" edge="1" parent="1" source="5McD0_1M50JmVXnACwnA-18" target="5McD0_1M50JmVXnACwnA-15">
          <mxGeometry relative="1" as="geometry">
            <Array as="points">
              <mxPoint x="780" y="546" />
            </Array>
          </mxGeometry>
        </mxCell>
        <mxCell id="5McD0_1M50JmVXnACwnA-18" value="Wait till policy is expired or peril is detected." style="rounded=1;whiteSpace=wrap;html=1;absoluteArcSize=1;arcSize=14;strokeWidth=2;" vertex="1" parent="1">
          <mxGeometry x="730" y="230" width="100" height="100" as="geometry" />
        </mxCell>
        <mxCell id="5McD0_1M50JmVXnACwnA-22" value="End" style="strokeWidth=2;html=1;shape=mxgraph.flowchart.terminator;whiteSpace=wrap;" vertex="1" parent="1">
          <mxGeometry x="550" y="820" width="100" height="60" as="geometry" />
        </mxCell>
        <mxCell id="OUREO986Ew9QmudfCvVQ-1" value="Policy Payout" style="text;html=1;strokeColor=none;fillColor=none;align=center;verticalAlign=middle;whiteSpace=wrap;rounded=0;fontSize=20;" vertex="1" parent="1">
          <mxGeometry x="390" y="20" width="130" height="30" as="geometry" />
        </mxCell>
        <mxCell id="OUREO986Ew9QmudfCvVQ-6" style="edgeStyle=orthogonalEdgeStyle;rounded=0;orthogonalLoop=1;jettySize=auto;html=1;" edge="1" parent="1" source="OUREO986Ew9QmudfCvVQ-5" target="5McD0_1M50JmVXnACwnA-22">
          <mxGeometry relative="1" as="geometry" />
        </mxCell>
        <mxCell id="OUREO986Ew9QmudfCvVQ-5" value="Validate payout" style="strokeWidth=2;html=1;shape=mxgraph.flowchart.delay;whiteSpace=wrap;" vertex="1" parent="1">
          <mxGeometry x="550" y="710" width="100" height="60" as="geometry" />
        </mxCell>
        <mxCell id="OUREO986Ew9QmudfCvVQ-7" value="Peril/claim information collector" style="rounded=1;whiteSpace=wrap;html=1;absoluteArcSize=1;arcSize=14;strokeWidth=2;" vertex="1" parent="1">
          <mxGeometry x="350" y="230" width="100" height="100" as="geometry" />
        </mxCell>
      </root>
    </mxGraphModel>
  </diagram>
</mxfile>
